<svg xmlns="http://www.w3.org/2000/svg" width="32" height="32">
    <defs>
        <linearGradient id="a" x1="15%" x2="85%" y1="15%" y2="85%">
            <stop stop-color="#8b5cf6" />
            <stop offset="1" stop-color="#06b6d4" />
        </linearGradient>
    </defs>
    <rect width="32" height="32" fill="url(#a)" rx="4" /><svg xmlns="http://www.w3.org/2000/svg" width="24" height="24"
        x="4" y="4" fill="none" viewBox="0 0 24 24">
        <path xmlns="http://www.w3.org/2000/svg" stroke="#f5f5f5" stroke-linecap="round" stroke-linejoin="round"
            stroke-width="2"
            d="M8.23 9.85A3 3 0 0 1 11 8a5 5 0 0 1 5 5 3 3 0 0 1-1.85 2.77l-.92.38A2 2 0 0 0 12 18a4 4 0 0 1-4 4 6 6 0 0 1-6-6 4 4 0 0 1 4-4 2 2 0 0 0 1.85-1.23ZM6 16l2 2M20.1 2.3a1 1 0 0 0-1.4 0l-1.114 1.114A2 2 0 0 0 17 4.828v1.344a2 2 0 0 1-.586 1.414A2 2 0 0 1 17.828 7h1.344a2 2 0 0 0 1.414-.586L21.7 5.3a1 1 0 0 0 0-1.4zm-8.2 9.8 4.514-4.514" />
    </svg>
</svg>